<svg width="30" height="29" viewBox="0 0 30 29" fill="none" xmlns="http://www.w3.org/2000/svg">
<path opacity="0.3" fill-rule="evenodd" clip-rule="evenodd" d="M15.3525 21.7502L15.3526 21.7501L20.2879 24.3448C20.5231 24.4684 20.7925 24.5111 21.0544 24.4662C21.7122 24.3534 22.1539 23.7287 22.0411 23.071L21.0986 17.5754L25.0913 13.6835C25.2816 13.498 25.4054 13.2549 25.4437 12.992C25.5396 12.3315 25.082 11.7184 24.4216 11.6224L18.9038 10.8206L16.4362 5.82064C16.3186 5.58234 16.1257 5.38946 15.8874 5.27185C15.7151 5.18684 15.5324 5.14666 15.3525 5.14681V21.7502Z" fill="#FFA800"/>
<path fill-rule="evenodd" clip-rule="evenodd" d="M15.3526 5.1468C14.9074 5.14717 14.4794 5.39445 14.2691 5.82064L11.8014 10.8206L6.2836 11.6224C6.02062 11.6606 5.77758 11.7845 5.59209 11.9748C5.12627 12.4526 5.13605 13.2177 5.61393 13.6835L9.60666 17.5754L8.66411 23.071C8.61918 23.3329 8.66185 23.6023 8.78551 23.8375C9.09606 24.4282 9.82665 24.6553 10.4173 24.3448L15.3526 21.7502V5.1468Z" fill="#FFA800"/>
</svg>
