<svg width="21" height="20" viewBox="0 0 21 20" fill="none" xmlns="http://www.w3.org/2000/svg">
<path fill-rule="evenodd" clip-rule="evenodd" d="M10.7647 16.7501L5.82944 19.3447C5.23876 19.6553 4.50817 19.4282 4.19762 18.8375C4.07396 18.6023 4.03129 18.3328 4.07621 18.0709L5.01877 12.5754L1.02604 8.68344C0.54816 8.21763 0.538382 7.45262 1.0042 6.97474C1.18969 6.78445 1.43273 6.66061 1.69571 6.6224L7.21354 5.82061L9.68118 0.82061C9.97653 0.222179 10.7011 -0.0235226 11.2995 0.271821C11.5378 0.389428 11.7307 0.582312 11.8483 0.82061L14.3159 5.82061L19.8338 6.6224C20.4942 6.71836 20.9517 7.33152 20.8558 7.99193C20.8176 8.25491 20.6937 8.49795 20.5034 8.68344L16.5107 12.5754L17.4533 18.0709C17.5661 18.7287 17.1243 19.3533 16.4666 19.4661C16.2047 19.5111 15.9352 19.4684 15.7 19.3447L10.7647 16.7501Z" fill="#FFA800"/>
</svg>
